<?xml version="1.0" encoding="UTF-8"?>
<!-- Uploaded to: SVG Repo, www.svgrepo.com, Generator: SVG Repo Mixer Tools -->
<svg width="800px" height="800px" viewBox="0 -2.5 35 35" version="1.1" xmlns="http://www.w3.org/2000/svg" xmlns:xlink="http://www.w3.org/1999/xlink">
    
    <title>basket</title>
    <desc>Created with Sketch.</desc>
    <g id="icons" stroke="none" stroke-width="1" fill="none" fill-rule="evenodd">
        <g id="ui-gambling-website-lined-icnos-casinoshunter" transform="translate(-213.000000, -285.000000)" fill="#252528" fill-rule="nonzero">
            <g id="square-filled" transform="translate(50.000000, 120.000000)">
                <path d="M185.18224,165.264274 L192.433981,172.516015 C192.508534,172.590568 192.56754,172.67485 192.611028,172.764899 L194.239304,172.765231 C196.316279,172.765231 198,174.424372 198,176.471026 C198,176.65473 197.986138,176.83818 197.958528,177.019858 L195.705832,191.843038 C195.430086,193.6575 193.848484,195 191.986608,195 L168.692517,195 C166.800696,195 165.203362,193.615159 164.962441,191.766134 L163.031031,176.942955 C162.766531,174.912965 164.222123,173.056043 166.282187,172.795403 C166.441012,172.775309 166.600978,172.765231 166.761108,172.765231 L168.324478,172.764899 C168.367966,172.67485 168.426972,172.590568 168.501525,172.516015 L168.501525,172.516015 L175.753266,165.264274 C176.115067,164.902473 176.706007,164.906818 177.073167,165.273979 C177.440328,165.64114 177.444673,166.23208 177.082873,166.59388 L177.082873,166.59388 L170.911,172.765 L190.024,172.765 L183.852633,166.59388 C183.490832,166.23208 183.495177,165.64114 183.862338,165.273979 C184.229499,164.906818 184.820439,164.902473 185.18224,165.264274 Z M194.239304,174.618128 L166.761108,174.618128 C166.681043,174.618128 166.60106,174.623167 166.521647,174.633215 C165.491615,174.763534 164.763819,175.691995 164.89607,176.70699 L166.827479,191.53017 C166.94794,192.454682 167.746606,193.147103 168.692517,193.147103 L191.986608,193.147103 C192.917546,193.147103 193.708347,192.475853 193.84622,191.568621 L196.098916,176.745442 C196.112721,176.654603 196.119652,176.562878 196.119652,176.471026 C196.119652,175.447699 195.277792,174.618128 194.239304,174.618128 Z M170.911851,178.259349 C171.431095,178.259349 171.852025,178.674134 171.852025,179.185797 L171.852025,179.185797 L171.852025,189.441308 C171.852025,189.952971 171.431095,190.367756 170.911851,190.367756 C170.392607,190.367756 169.971677,189.952971 169.971677,189.441308 L169.971677,189.441308 L169.971677,179.185797 C169.971677,178.674134 170.392607,178.259349 170.911851,178.259349 Z M175.612721,178.259349 C176.131965,178.259349 176.552895,178.674134 176.552895,179.185797 L176.552895,179.185797 L176.552895,189.441308 C176.552895,189.952971 176.131965,190.367756 175.612721,190.367756 C175.093477,190.367756 174.672547,189.952971 174.672547,189.441308 L174.672547,189.441308 L174.672547,179.185797 C174.672547,178.674134 175.093477,178.259349 175.612721,178.259349 Z M180.313591,178.259349 C180.832834,178.259349 181.253765,178.674134 181.253765,179.185797 L181.253765,179.185797 L181.253765,189.441308 C181.253765,189.952971 180.832834,190.367756 180.313591,190.367756 C179.794347,190.367756 179.373417,189.952971 179.373417,189.441308 L179.373417,189.441308 L179.373417,179.185797 C179.373417,178.674134 179.794347,178.259349 180.313591,178.259349 Z M185.014461,178.259349 C185.533704,178.259349 185.954635,178.674134 185.954635,179.185797 L185.954635,179.185797 L185.954635,189.441308 C185.954635,189.952971 185.533704,190.367756 185.014461,190.367756 C184.495217,190.367756 184.074287,189.952971 184.074287,189.441308 L184.074287,189.441308 L184.074287,179.185797 C184.074287,178.674134 184.495217,178.259349 185.014461,178.259349 Z M189.71533,178.259349 C190.234574,178.259349 190.655504,178.674134 190.655504,179.185797 L190.655504,179.185797 L190.655504,189.441308 C190.655504,189.952971 190.234574,190.367756 189.71533,190.367756 C189.196087,190.367756 188.775156,189.952971 188.775156,189.441308 L188.775156,189.441308 L188.775156,179.185797 C188.775156,178.674134 189.196087,178.259349 189.71533,178.259349 Z" id="basket">
</path>
            </g>
        </g>
    </g>
</svg>