<!DOCTYPE svg PUBLIC "-//W3C//DTD SVG 1.1//EN" "http://www.w3.org/Graphics/SVG/1.1/DTD/svg11.dtd">
<!-- Uploaded to: SVG Repo, www.svgrepo.com, Transformed by: SVG Repo Mixer Tools -->
<svg width="800px" height="800px" viewBox="0 -2.5 35 35" version="1.1" xmlns="http://www.w3.org/2000/svg" xmlns:xlink="http://www.w3.org/1999/xlink" fill="#000000">
<g id="SVGRepo_bgCarrier" stroke-width="0"/>
<g id="SVGRepo_tracerCarrier" stroke-linecap="round" stroke-linejoin="round"/>
<g id="SVGRepo_iconCarrier"> <title>basket</title> <desc>Created with Sketch.</desc> <g id="icons" stroke="none" stroke-width="1" fill="none" fill-rule="evenodd"> <g id="ui-gambling-website-lined-icnos-casinoshunter" transform="translate(-1513.000000, -285.000000)" fill="#d48498" fill-rule="nonzero"> <g id="1" transform="translate(1350.000000, 120.000000)"> <path d="M185.18224,165.264274 L192.433981,172.516015 C192.508388,172.590422 192.567309,172.67452 192.610772,172.76437 L194.239304,172.765231 C196.316279,172.765231 198,174.424372 198,176.471026 C198,176.65473 197.986138,176.83818 197.958528,177.019858 L195.705832,191.843038 C195.430086,193.6575 193.848484,195 191.986608,195 L168.692517,195 C166.800696,195 165.203362,193.615159 164.962441,191.766134 L163.031031,176.942955 C162.766531,174.912965 164.222123,173.056043 166.282187,172.795403 C166.441012,172.775309 166.600978,172.765231 166.761108,172.765231 L168.324733,172.76437 C168.353709,172.70447 168.389555,172.647126 168.432279,172.593506 L168.501525,172.516015 L175.753266,165.264274 C176.115067,164.902473 176.706007,164.906818 177.073167,165.273979 C177.409732,165.610543 177.44143,166.135144 177.165697,166.498919 L177.082873,166.59388 L170.911,172.76474 L190.024,172.76474 L183.852633,166.59388 C183.490832,166.23208 183.495177,165.64114 183.862338,165.273979 C184.229499,164.906818 184.820439,164.902473 185.18224,165.264274 Z M170.911851,178.259349 C170.392607,178.259349 169.971677,178.674134 169.971677,179.185797 L169.971677,189.441308 C169.971677,189.952971 170.392607,190.367756 170.911851,190.367756 C171.431095,190.367756 171.852025,189.952971 171.852025,189.441308 L171.852025,179.185797 C171.852025,178.674134 171.431095,178.259349 170.911851,178.259349 Z M175.612721,178.259349 C175.093477,178.259349 174.672547,178.674134 174.672547,179.185797 L174.672547,189.441308 C174.672547,189.952971 175.093477,190.367756 175.612721,190.367756 C176.131965,190.367756 176.552895,189.952971 176.552895,189.441308 L176.552895,179.185797 C176.552895,178.674134 176.131965,178.259349 175.612721,178.259349 Z M180.313591,178.259349 C179.794347,178.259349 179.373417,178.674134 179.373417,179.185797 L179.373417,189.441308 C179.373417,189.952971 179.794347,190.367756 180.313591,190.367756 C180.832834,190.367756 181.253765,189.952971 181.253765,189.441308 L181.253765,179.185797 C181.253765,178.674134 180.832834,178.259349 180.313591,178.259349 Z M185.014461,178.259349 C184.495217,178.259349 184.074287,178.674134 184.074287,179.185797 L184.074287,189.441308 C184.074287,189.952971 184.495217,190.367756 185.014461,190.367756 C185.533704,190.367756 185.954635,189.952971 185.954635,189.441308 L185.954635,179.185797 C185.954635,178.674134 185.533704,178.259349 185.014461,178.259349 Z M189.71533,178.259349 C189.196087,178.259349 188.775156,178.674134 188.775156,179.185797 L188.775156,189.441308 C188.775156,189.952971 189.196087,190.367756 189.71533,190.367756 C190.234574,190.367756 190.655504,189.952971 190.655504,189.441308 L190.655504,179.185797 C190.655504,178.674134 190.234574,178.259349 189.71533,178.259349 Z" id="basket"> </path> </g> </g> </g> </g>
</svg>